<?xml version="1.0" encoding="UTF-8"?>
<svg xmlns="http://www.w3.org/2000/svg" xmlns:xlink="http://www.w3.org/1999/xlink" width="225.821167pt" height="72.929802pt" viewBox="0 0 225.821167 72.929802" version="1.1">
<defs>
<clipPath id="clip1">
  <path d="M 0 1 L 113 1 L 113 72.929688 L 0 72.929688 Z M 0 1 "/>
</clipPath>
<clipPath id="clip2">
  <path d="M 129 0 L 225.820312 0 L 225.820312 72.929688 L 129 72.929688 Z M 129 0 "/>
</clipPath>
</defs>
<g id="surface1">
<g clip-path="url(#clip1)" clip-rule="nonzero">
<path style="fill:none;stroke-width:0.16;stroke-linecap:butt;stroke-linejoin:miter;stroke:rgb(0%,0%,0%);stroke-opacity:1;stroke-miterlimit:4;" d="M 73.144531 72.179688 C 62.039062 69.585938 33.539062 56.886719 25.511719 50.953125 C 20.34375 47.128906 22.015625 42.871094 31.246094 36.34375 C 39.796875 30.296875 39.464844 30.1875 21.699219 33.101562 C 1.914062 36.347656 -0.769531 35.882812 0.273438 29.367188 C 1.332031 22.746094 9.257812 9.523438 13.269531 7.699219 C 15.113281 6.859375 15.535156 6.992188 17.238281 8.972656 C 20.457031 12.410156 20.144531 19.617188 24.371094 21.800781 C 28.042969 23.210938 32.566406 20.914062 46.382812 10.632812 C 57.089844 2.664062 60.625 0.964844 61.96875 3.144531 C 62.257812 3.609375 61.199219 6.605469 59.617188 9.804688 C 54.078125 21.019531 55.3125 21.761719 73.875 18.359375 C 88.058594 15.761719 97.429688 15.265625 100.742188 16.929688 C 106.015625 19.578125 111.101562 32.828125 111.617188 45.257812 C 111.910156 52.339844 110.992188 56.296875 108.773438 57.484375 C 106.648438 58.621094 102.667969 57.226562 89.246094 50.632812 C 78.179688 45.195312 72.742188 43.496094 72.742188 45.464844 C 72.742188 46.355469 75.671875 54.144531 78.707031 61.335938 C 80.058594 64.535156 80.746094 67.453125 80.589844 69.335938 C 80.359375 72.117188 80.167969 72.308594 77.542969 72.425781 C 76.003906 72.496094 74.023438 72.382812 73.144531 72.179688 Z M 73.144531 72.179688 "/>
</g>
<g clip-path="url(#clip2)" clip-rule="nonzero">
<path style="fill:none;stroke-width:0.16;stroke-linecap:butt;stroke-linejoin:miter;stroke:rgb(0%,0%,0%);stroke-opacity:1;stroke-miterlimit:4;" d="M 152.773438 42.554688 L 130.316406 46.796875 L 148.535156 27.136719 L 138.6875 0.0898438 L 225.679688 20.191406 L 184.449219 29.386719 L 224.929688 37.726562 L 186.308594 41.75 L 185.589844 67.253906 L 165.453125 47.007812 L 159.46875 72.851562 Z M 152.773438 42.554688 "/>
</g>
</g>
</svg>
