<?xml version="1.0" encoding="UTF-8"?>
<svg xmlns="http://www.w3.org/2000/svg" xmlns:xlink="http://www.w3.org/1999/xlink" width="54.950001pt" height="54.950001pt" viewBox="0 0 54.950001 54.950001" version="1.1">
<defs>
<clipPath id="clip1">
  <path d="M 0 0 L 54.949219 0 L 54.949219 54.949219 L 0 54.949219 Z M 0 0 "/>
</clipPath>
</defs>
<g id="surface1">
<g clip-path="url(#clip1)" clip-rule="nonzero">
<path style=" stroke:none;fill-rule:nonzero;fill:rgb(0%,0%,0%);fill-opacity:1;" d="M 27.425781 0 C 35.144531 0 41.65625 2.648438 46.953125 7.949219 C 52.285156 13.277344 54.953125 19.789062 54.953125 27.472656 C 54.953125 35.195312 52.335938 41.621094 47.101562 46.757812 C 41.539062 52.21875 34.980469 54.949219 27.425781 54.949219 C 20 54.949219 13.558594 52.25 8.09375 46.855469 C 2.699219 41.457031 0 34.996094 0 27.472656 C 0 19.953125 2.699219 13.441406 8.09375 7.949219 C 13.394531 2.648438 19.839844 0 27.425781 0 Z M 27.523438 4.953125 C 21.277344 4.953125 15.996094 7.144531 11.675781 11.527344 C 7.195312 16.109375 4.957031 21.421875 4.957031 27.472656 C 4.957031 33.558594 7.179688 38.824219 11.628906 43.273438 C 16.078125 47.722656 21.375 49.945312 27.523438 49.945312 C 33.640625 49.945312 38.972656 47.707031 43.519531 43.222656 C 47.835938 39.070312 49.996094 33.820312 49.996094 27.472656 C 49.996094 21.226562 47.804688 15.910156 43.421875 11.527344 C 39.039062 7.144531 33.738281 4.953125 27.523438 4.953125 Z M 34.882812 20.65625 L 34.882812 31.890625 L 31.742188 31.890625 L 31.742188 45.234375 L 23.207031 45.234375 L 23.207031 31.890625 L 20.066406 31.890625 L 20.066406 20.65625 C 20.066406 20.164062 20.238281 19.746094 20.582031 19.402344 C 20.925781 19.058594 21.34375 18.886719 21.832031 18.886719 L 33.117188 18.886719 C 33.574219 18.886719 33.984375 19.058594 34.34375 19.402344 C 34.703125 19.746094 34.882812 20.164062 34.882812 20.65625 Z M 23.648438 13.589844 C 23.648438 11.007812 24.925781 9.714844 27.476562 9.714844 C 30.027344 9.714844 31.300781 11.007812 31.300781 13.589844 C 31.300781 16.140625 30.027344 17.417969 27.476562 17.417969 C 24.925781 17.417969 23.648438 16.140625 23.648438 13.589844 "/>
</g>
</g>
</svg>
