<?xml version="1.0" encoding="UTF-8"?>
<svg xmlns="http://www.w3.org/2000/svg" xmlns:xlink="http://www.w3.org/1999/xlink" width="54.950001pt" height="54.950001pt" viewBox="0 0 54.950001 54.950001" version="1.1">
<defs>
<clipPath id="clip1">
  <path d="M 0 0 L 54.949219 0 L 54.949219 54.949219 L 0 54.949219 Z M 0 0 "/>
</clipPath>
</defs>
<g id="surface1">
<g clip-path="url(#clip1)" clip-rule="nonzero">
<path style=" stroke:none;fill-rule:nonzero;fill:rgb(0%,0%,0%);fill-opacity:1;" d="M 27.425781 0 C 35.113281 0 41.65625 2.679688 47.050781 8.046875 C 49.636719 10.628906 51.597656 13.582031 52.941406 16.902344 C 54.28125 20.222656 54.953125 23.746094 54.953125 27.472656 C 54.953125 31.234375 54.289062 34.761719 52.964844 38.046875 C 51.640625 41.335938 49.683594 44.238281 47.101562 46.757812 C 44.417969 49.40625 41.378906 51.433594 37.976562 52.839844 C 34.574219 54.246094 31.058594 54.949219 27.425781 54.949219 C 23.796875 54.949219 20.320312 54.253906 17 52.863281 C 13.679688 51.476562 10.703125 49.464844 8.070312 46.828125 C 5.4375 44.199219 3.433594 41.230469 2.0625 37.925781 C 0.6875 34.621094 0 31.136719 0 27.472656 C 0 23.84375 0.695312 20.351562 2.085938 17 C 3.476562 13.648438 5.496094 10.644531 8.144531 7.996094 C 13.378906 2.664062 19.804688 0 27.425781 0 Z M 27.523438 4.953125 C 21.246094 4.953125 15.960938 7.144531 11.675781 11.527344 C 9.519531 13.71875 7.859375 16.183594 6.699219 18.914062 C 5.535156 21.644531 4.957031 24.5 4.957031 27.472656 C 4.957031 30.417969 5.535156 33.257812 6.699219 35.988281 C 7.859375 38.71875 9.519531 41.15625 11.675781 43.296875 C 13.835938 45.441406 16.273438 47.074219 18.988281 48.203125 C 21.703125 49.332031 24.546875 49.894531 27.523438 49.894531 C 30.46875 49.894531 33.320312 49.324219 36.085938 48.179688 C 38.851562 47.035156 41.34375 45.382812 43.570312 43.222656 C 47.851562 39.039062 49.996094 33.789062 49.996094 27.472656 C 49.996094 24.433594 49.441406 21.554688 48.328125 18.839844 C 47.214844 16.125 45.597656 13.703125 43.46875 11.578125 C 39.054688 7.160156 33.738281 4.953125 27.523438 4.953125 Z M 27.179688 22.910156 L 23.5 24.824219 C 23.109375 24.007812 22.625 23.433594 22.054688 23.109375 C 21.480469 22.78125 20.949219 22.617188 20.460938 22.617188 C 18.007812 22.617188 16.78125 24.234375 16.78125 27.472656 C 16.78125 28.945312 17.089844 30.125 17.710938 31.007812 C 18.332031 31.890625 19.25 32.332031 20.460938 32.332031 C 22.0625 32.332031 23.191406 31.546875 23.84375 29.976562 L 27.230469 31.695312 C 26.511719 33.035156 25.511719 34.089844 24.238281 34.859375 C 22.960938 35.628906 21.554688 36.011719 20.019531 36.011719 C 17.566406 36.011719 15.585938 35.257812 14.082031 33.753906 C 12.578125 32.25 11.824219 30.15625 11.824219 27.472656 C 11.824219 24.859375 12.585938 22.78125 14.105469 21.242188 C 15.628906 19.707031 17.546875 18.9375 19.871094 18.9375 C 23.273438 18.9375 25.710938 20.261719 27.179688 22.910156 Z M 43.027344 22.910156 L 39.398438 24.824219 C 39.007812 24.007812 38.523438 23.433594 37.949219 23.109375 C 37.378906 22.78125 36.832031 22.617188 36.308594 22.617188 C 33.855469 22.617188 32.628906 24.234375 32.628906 27.472656 C 32.628906 28.945312 32.9375 30.125 33.558594 31.007812 C 34.179688 31.890625 35.097656 32.332031 36.308594 32.332031 C 37.910156 32.332031 39.039062 31.546875 39.691406 29.976562 L 43.128906 31.695312 C 42.375 33.035156 41.359375 34.089844 40.085938 34.859375 C 38.808594 35.628906 37.417969 36.011719 35.914062 36.011719 C 33.429688 36.011719 31.441406 35.257812 29.953125 33.753906 C 28.464844 32.25 27.722656 30.15625 27.722656 27.472656 C 27.722656 24.859375 28.480469 22.78125 30.003906 21.242188 C 31.523438 19.707031 33.445312 18.9375 35.769531 18.9375 C 39.167969 18.9375 41.589844 20.261719 43.027344 22.910156 "/>
</g>
</g>
</svg>
